<?xml version="1.0" standalone="no"?><!-- Generator: Adobe Fireworks CS6, Export SVG Extension by Aaron Beall (http://fireworks.abeall.com) . Version: 0.6.1  --><!DOCTYPE svg PUBLIC "-//W3C//DTD SVG 1.1//EN" "http://www.w3.org/Graphics/SVG/1.1/DTD/svg11.dtd"><svg id="Untitled-Page%201" viewBox="0 0 88 17" style="background-color:#ffffff00" version="1.1"	xmlns="http://www.w3.org/2000/svg" xmlns:xlink="http://www.w3.org/1999/xlink" xml:space="preserve"	x="0px" y="0px" width="88px" height="17px">	<g id="Layer%201">		<g>			<path d="M 1.2031 9.2031 L 5.8438 9.2031 C 6.7031 9.2031 7.4375 9.0781 8.0313 8.8438 C 8.625 8.625 9.0625 8.2969 9.375 7.8594 C 9.6875 7.4375 9.9063 6.9844 10.0313 6.5 C 10.1563 6.0156 10.2344 5.4375 10.2344 4.7813 C 10.2344 4.125 9.8906 3.4375 9.2031 2.7188 C 8.5156 2 7.6719 1.6406 6.6719 1.6406 L 1.2031 1.6406 L 1.2031 4.9063 L 1.2031 9.2031 L 1.2031 9.2031 ZM 0.0781 16 L 0.0781 0.5625 L 0.9531 0.5625 L 1.1563 0.5625 L 6.3906 0.5625 C 6.8594 0.5625 7.375 0.6563 7.9375 0.8438 C 8.5 1.0313 9.0469 1.2969 9.5781 1.6406 C 10.0938 1.9844 10.5313 2.4219 10.875 2.9844 C 11.2188 3.5469 11.3906 4.1406 11.3906 4.7813 C 11.3906 6.5 10.9219 7.8594 10.0156 8.8281 C 9.1094 9.8125 7.7969 10.2969 6.1094 10.2813 L 1.2031 10.2813 L 1.2031 16 L 0.0781 16 L 0.0781 16 Z" fill="#ffffff"/>			<path d="M 14.1563 7.7031 L 24.0313 7.7031 L 24.0313 0.5625 L 25.1094 0.5625 L 25.1094 6.875 L 25.1094 16 L 24.0313 16 L 24.0313 8.8125 L 14.1563 8.8125 L 14.1563 16 L 13.0781 16 L 13.0781 0.5625 L 14.1563 0.5625 L 14.1563 6.875 L 14.1563 7.7031 L 14.1563 7.7031 Z" fill="#ffffff"/>			<path d="M 32.0156 14.6875 C 31.2031 14.3125 30.5156 13.8281 29.9375 13.2031 C 29.3594 12.5781 28.9063 11.8438 28.5781 11 C 28.25 10.1563 28.0938 9.2656 28.0938 8.2969 L 28.0938 8.25 C 28.0938 7.3125 28.25 6.4219 28.5781 5.5781 C 28.8906 4.7344 29.3438 4.0156 29.9219 3.3906 C 30.5 2.7656 31.1875 2.2813 31.9844 1.9219 C 32.7813 1.5625 33.6563 1.375 34.625 1.375 C 35.5625 1.375 36.4375 1.5625 37.25 1.9219 C 38.0625 2.2969 38.75 2.7813 39.3438 3.4063 C 39.9219 4.0313 40.375 4.7656 40.7031 5.6094 C 41.0313 6.4531 41.2031 7.3594 41.2031 8.2969 L 41.2031 8.3438 C 41.2031 9.3125 41.0313 10.2031 40.7188 11.0313 C 40.3906 11.875 39.9375 12.5938 39.3594 13.2188 C 38.7813 13.8438 38.0938 14.3438 37.2969 14.7031 C 36.4844 15.0625 35.6094 15.2344 34.6719 15.2344 C 33.7031 15.2344 32.8281 15.0625 32.0156 14.6875 L 32.0156 14.6875 ZM 37.7969 15.625 C 38.7656 15.1875 39.5781 14.6094 40.25 13.875 C 40.9219 13.1406 41.4531 12.2969 41.8281 11.3281 C 42.2031 10.375 42.3906 9.3594 42.3906 8.2969 C 42.3906 8.2969 42.3906 8.2813 42.3906 8.25 C 42.3906 7.2031 42.2031 6.2031 41.8438 5.25 C 41.4688 4.2969 40.9531 3.4531 40.2813 2.7344 C 39.5938 2.0156 38.7813 1.4375 37.8281 1 C 36.875 0.5625 35.8281 0.3438 34.6719 0.3438 C 33.4844 0.3438 32.4219 0.5625 31.4688 1 C 30.5156 1.4375 29.7031 2.0156 29.0313 2.7344 C 28.3594 3.4688 27.8438 4.3125 27.4688 5.2813 C 27.0938 6.25 26.9063 7.25 26.9063 8.2969 L 26.9063 8.3438 C 26.9063 9.4063 27.0781 10.4063 27.4531 11.3594 C 27.8125 12.3125 28.3281 13.1563 29.0156 13.875 C 29.6875 14.6094 30.5 15.1875 31.4375 15.625 C 32.375 16.0469 33.4375 16.2656 34.625 16.2656 C 35.7813 16.2656 36.8281 16.0469 37.7969 15.625 L 37.7969 15.625 Z" fill="#ffffff"/>			<path d="M 50.3281 1.6406 L 55.6875 1.6406 L 55.6875 0.5625 L 50.3281 0.5625 L 49.25 0.5625 L 43.8125 0.5625 L 43.8125 1.6406 L 49.25 1.6406 L 49.25 16 L 50.3281 16 L 50.3281 1.6406 L 50.3281 1.6406 Z" fill="#ffffff"/>			<path d="M 63.0156 14.6875 C 62.2031 14.3125 61.5156 13.8281 60.9375 13.2031 C 60.3594 12.5781 59.9063 11.8438 59.5781 11 C 59.25 10.1563 59.0938 9.2656 59.0938 8.2969 L 59.0938 8.25 C 59.0938 7.3125 59.25 6.4219 59.5781 5.5781 C 59.8906 4.7344 60.3438 4.0156 60.9219 3.3906 C 61.5 2.7656 62.1875 2.2813 62.9844 1.9219 C 63.7813 1.5625 64.6563 1.375 65.625 1.375 C 66.5625 1.375 67.4375 1.5625 68.25 1.9219 C 69.0625 2.2969 69.75 2.7813 70.3438 3.4063 C 70.9219 4.0313 71.375 4.7656 71.7031 5.6094 C 72.0313 6.4531 72.2031 7.3594 72.2031 8.2969 L 72.2031 8.3438 C 72.2031 9.3125 72.0313 10.2031 71.7188 11.0313 C 71.3906 11.875 70.9375 12.5938 70.3594 13.2188 C 69.7813 13.8438 69.0938 14.3438 68.2969 14.7031 C 67.4844 15.0625 66.6094 15.2344 65.6719 15.2344 C 64.7031 15.2344 63.8281 15.0625 63.0156 14.6875 L 63.0156 14.6875 ZM 68.7969 15.625 C 69.7656 15.1875 70.5781 14.6094 71.25 13.875 C 71.9219 13.1406 72.4531 12.2969 72.8281 11.3281 C 73.2031 10.375 73.3906 9.3594 73.3906 8.2969 C 73.3906 8.2969 73.3906 8.2813 73.3906 8.25 C 73.3906 7.2031 73.2031 6.2031 72.8438 5.25 C 72.4688 4.2969 71.9531 3.4531 71.2813 2.7344 C 70.5938 2.0156 69.7813 1.4375 68.8281 1 C 67.875 0.5625 66.8281 0.3438 65.6719 0.3438 C 64.4844 0.3438 63.4219 0.5625 62.4688 1 C 61.5156 1.4375 60.7031 2.0156 60.0313 2.7344 C 59.3594 3.4688 58.8438 4.3125 58.4688 5.2813 C 58.0938 6.25 57.9063 7.25 57.9063 8.2969 L 57.9063 8.3438 C 57.9063 9.4063 58.0781 10.4063 58.4531 11.3594 C 58.8125 12.3125 59.3281 13.1563 60.0156 13.875 C 60.6875 14.6094 61.5 15.1875 62.4375 15.625 C 63.375 16.0469 64.4375 16.2656 65.625 16.2656 C 66.7813 16.2656 67.8281 16.0469 68.7969 15.625 L 68.7969 15.625 Z" fill="#ffffff"/>			<path d="M 76.1563 2.2031 L 87.1094 16 L 87.8438 16 L 87.8438 0.5625 L 86.7656 0.5625 L 86.7656 13.8281 L 76.1563 0.5625 L 75.0781 0.5625 L 75.0781 16 L 76.1563 16 L 76.1563 2.2031 L 76.1563 2.2031 Z" fill="#ffffff"/>		</g>	</g></svg>